# xmcd
#
# Track frame offsets: 
#        150
#        15943
#        30262
#        43171
#        60204
#        87235
#        107593
#        130396
#        153476
#        169179
#        194843
#        213809
#        237324
#        252236
#        267343
#        283978
#        300902
#        319345
#
# Disc length: 4505 seconds
#
# Revision: 0
# Processed by: cddbd v1.5.2PL0 Copyright (c) Steve Scherf et al.
# Submitted via: ExactAudioCopy v0.95b3
#
DISCID=f3119712
DTITLE=The Rolling Stones - Through The Vaults Darkly(2007) - Disc 1  
DTITLE=[FLAC]
DYEAR=1900
DGENRE=
TTITLE0=Dear Doctor
TTITLE1=Child Of The Moon
TTITLE2=You've Got The Silver
TTITLE3=Downtown Susie
TTITLE4=Travellin' Man
TTITLE5=Gimme Shelter
TTITLE6=Highway Child
TTITLE7=Schoolboy Blues
TTITLE8=Cocksucker Blues
TTITLE9=Sister Morphine
TTITLE10=Brown Sugar(Original Version With Eric Clapton)
TTITLE11=Wild Horses
TTITLE12=Good Time Woman
TTITLE13=Gimme A Hamburger
TTITLE14=Ain't Gonna Lie
TTITLE15=Too Many Coocks
TTITLE16=Criss Cross Man
TTITLE17=Drift Away
EXTD=
EXTT0=
EXTT1=
EXTT2=
EXTT3=
EXTT4=
EXTT5=
EXTT6=
EXTT7=
EXTT8=
EXTT9=
EXTT10=
EXTT11=
EXTT12=
EXTT13=
EXTT14=
EXTT15=
EXTT16=
EXTT17=
PLAYORDER=
